HIERARCHY
ROOT Hips
{
  OFFSET 279.157 85.6768 304.565
  CHANNELS 6 Xposition Yposition Zposition Zrotation Xrotation Yrotation
  JOINT LeftUpLeg
  {
    OFFSET 8.64259 1.95398 -2.38835
    CHANNELS 3 Zrotation Xrotation Yrotation
    JOINT LeftLeg
    {
      OFFSET 43.7702 0 0
      CHANNELS 3 Zrotation Xrotation Yrotation
      JOINT LeftFoot
      {
        OFFSET 40.6238 0 0
        CHANNELS 3 Zrotation Xrotation Yrotation
        JOINT LeftToeBase
        {
          OFFSET 12.7242 0 0
          CHANNELS 3 Zrotation Xrotation Yrotation
          End Site
          {
            OFFSET 0 0 0
          }
        }
      }
    }
  }
  JOINT RightUpLeg
  {
    OFFSET -8.2249 1.95398 -2.59336
    CHANNELS 3 Zrotation Xrotation Yrotation
    JOINT RightLeg
    {
      OFFSET 43.5653 0 0
      CHANNELS 3 Zrotation Xrotation Yrotation
      JOINT RightFoot
      {
        OFFSET 40.6238 0 0
        CHANNELS 3 Zrotation Xrotation Yrotation
        JOINT RightToeBase
        {
          OFFSET 12.7242 0 0
          CHANNELS 3 Zrotation Xrotation Yrotation
          End Site
          {
            OFFSET 0 0 0
          }
        }
      }
    }
  }
  JOINT Spine
  {
    OFFSET 0.165834 0.87714 6.61349
    CHANNELS 3 Zrotation Xrotation Yrotation
    JOINT Spine1
    {
      OFFSET 7.38963 1.71661e-005 0
      CHANNELS 3 Zrotation Xrotation Yrotation
      JOINT Spine2
      {
        OFFSET 11.9445 1.14441e-005 0
        CHANNELS 3 Zrotation Xrotation Yrotation
        JOINT Spine3
        {
          OFFSET 14.7254 4.19617e-005 0
          CHANNELS 3 Zrotation Xrotation Yrotation
          JOINT Spine4
          {
            OFFSET 10.9679 0 0
            CHANNELS 3 Zrotation Xrotation Yrotation
            JOINT RightShoulder
            {
              OFFSET 2.46616 -1.6653 3.69651
              CHANNELS 3 Zrotation Xrotation Yrotation
              JOINT RightArm
              {
                OFFSET 13.0012 0 0
                CHANNELS 3 Zrotation Xrotation Yrotation
                JOINT RightForeArm
                {
                  OFFSET 28.7848 1.52588e-005 0
                  CHANNELS 3 Zrotation Xrotation Yrotation
                  JOINT RightHand
                  {
                    OFFSET 26.5688 1.52588e-005 0
                    CHANNELS 3 Zrotation Xrotation Yrotation
                    End Site
                    {
                      OFFSET 0 0 0
                    }
                  }
                }
              }
            }
            JOINT LeftShoulder
            {
              OFFSET 2.38034 -1.29275 -3.7523
              CHANNELS 3 Zrotation Xrotation Yrotation
              JOINT LeftArm
              {
                OFFSET 16.3182 6.10351e-005 0
                CHANNELS 3 Zrotation Xrotation Yrotation
                JOINT LeftForeArm
                {
                  OFFSET 27.0901 0 0
                  CHANNELS 3 Zrotation Xrotation Yrotation
                  JOINT LeftHand
                  {
                    OFFSET 24.5451 1.52588e-005 0
                    CHANNELS 3 Zrotation Xrotation Yrotation
                    End Site
                    {
                      OFFSET 0 0 0
                    }
                  }
                }
              }
            }
            JOINT Neck
            {
              OFFSET 5.0226 -0.0266342 0
              CHANNELS 3 Zrotation Xrotation Yrotation
              JOINT Head
              {
                OFFSET 6.69364 2.86102e-005 0
                CHANNELS 3 Zrotation Xrotation Yrotation
                End Site
                {
                  OFFSET 0 0 0
                }
              }
            }
          }
        }
      }
    }
  }
}
MOTION
Frames:	18
Frame Time:	0.0416667
22.0488 98.4032 -42.5841 -130.259 -76.1823 -134.371 -174.493 15.025 82.8184 -24.204 -0.865201 -4.50923 63.6649 1.51284 -0.91114 6.3019 -15.3149 5.26832 170.057 -11.1313 80.7746 -42.1484 -25.6258 -5.8896 62.2665 -1.4588 -1.06723 41.0561 -4.21488 4.71699 1.41694 7.86025 -89.9202 11.1579 2.85734 -0.120175 -0.509962 2.84928 -0.245925 -23.0692 2.76125 0.744804 -3.05653 2.76125 0.744795 86.1364 -30.2131 -114.219 36.9538 -6.82661 -10.7461 -1.14881 -28.8799 -19.9082 -25.2049 -0.507702 -10.2981 -87.1047 -58.437 84.3642 -25.2109 4.13768 9.1988 1.94854 1.41254 -6.49836 -3.88485 -0.0632258 -6.43805 -5.59274 1.27219 6.52409 -5.64425 0.770046 -3.00755 
22.9508 98.7392 -35.4911 -131.971 -75.0331 -138.178 -175.261 10.2751 79.4791 -26.6011 -2.11134 -4.90228 68.4909 4.3873 0.455538 7.52533 -14.4651 5.19627 174.534 1.1589 79.386 -62.6119 -24.6659 -8.21288 53.5057 3.51792 2.32528 25.777 0.63686 2.36016 1.15873 7.95233 -89.7059 10.9665 2.44308 0.352711 -0.702236 2.45623 0.244779 -23.2528 2.22407 1.07099 -3.2401 2.22407 1.07099 86.5071 -30.1538 -113.535 40.2241 -8.11341 -8.43444 2.03799 -27.7024 -14.9345 -23.7509 -0.676124 -9.13146 -87.3224 -58.221 84.0346 -20.1469 5.52123 -1.62591 2.37004 2.43921 -8.72728 -1.76137 -0.108377 -7.55879 -7.1023 2.10074 8.49275 -4.59773 1.49397 -2.66135 
23.549 99.498 -29.9808 -141.305 -76.6272 -146.822 -176.033 5.55708 78.8521 -25.1521 -0.0666002 -4.13432 70.7064 6.05809 0.456975 9.06004 -13.9896 6.28194 178.453 10.5918 82.648 -65.2016 -17.9789 -7.53393 61.973 -1.39813 -0.503009 26.8099 0.222816 3.04821 0.701104 8.01633 -89.841 10.8423 1.46944 0.177018 -0.827856 1.4758 0.112154 -23.3689 1.3483 0.610535 -3.35623 1.3483 0.610542 86.6637 -30.9643 -112.85 40.4392 -8.25643 -4.80706 4.47344 -27.112 -11.6368 -23.5245 -0.756088 -8.45065 -87.0853 -56.3974 84.0969 -15.4182 2.91891 -11.5097 5.50612 5.50576 -15.935 0.817239 -0.229551 -9.33338 -8.22571 3.20439 9.51175 -4.3852 2.57785 -0.819323 
23.6774 99.9689 -25.1661 -163.494 -79.7323 -167.319 -176.438 2.54573 79.9952 -24.4913 4.98617 -2.80367 72.8185 7.31448 0.670045 10.2508 -13.6616 7.25048 -179.261 15.7655 86.4238 -50.5213 -13.6666 -6.95366 65.0819 -3.2546 -0.72695 26.0887 0.702599 1.44759 0.257758 8.0596 -90.1911 10.7564 0.425173 -0.418815 -0.914515 0.406335 -0.437126 -23.45 0.531392 -0.271671 -3.43737 0.531384 -0.27168 87.2687 -30.9694 -111.689 40.1855 -6.44012 0.233429 3.74651 -26.8438 -11.9501 -22.9764 -0.75142 -8.47462 -87.4576 -53.6002 83.1359 -13.6157 -0.840668 -20.635 8.99182 7.8795 -21.3715 3.02403 -0.404105 -10.9563 -8.09287 3.35894 9.61436 -3.57488 2.68402 0.47318 
23.6852 99.8605 -20.0429 162.025 -80.4307 158.416 -176.084 -0.341964 80.9368 -24.5846 11.7489 -2.34967 75.4895 9.0768 1.18803 8.87449 -13.9831 6.01825 -177.227 16.785 87.4336 -30.7851 -23.999 -7.64141 62.1902 -2.48951 -1.12795 28.4845 -0.128213 1.74217 -0.190465 8.06555 -90.2632 10.7415 -0.500601 -0.477207 -0.929458 -0.521117 -0.454724 -23.4643 -0.33404 -0.605594 -3.45166 -0.334046 -0.605603 87.5533 -31.3065 -110.994 40.4384 -5.74095 3.72773 4.31543 -25.5559 -10.9622 -23.0711 -0.63547 -8.74944 -87.6186 -50.979 82.4661 -12.4921 -2.85757 -27.5788 10.0145 7.28267 -23.2113 8.55775 -0.672571 -10.4479 -7.38089 3.30427 7.87674 -3.67995 2.68535 1.32591 
23.9664 99.2835 -14.2069 135.191 -77.3897 131.345 -174.977 -4.03425 82.5958 -25.2895 19.12 -2.40631 78.6774 11.5083 1.19315 10.0288 -13.5313 6.6729 -178.523 13.723 87.3475 -11.6276 -44.5249 -6.91576 60.0929 -0.507405 1.26445 33.9295 -1.77858 0.30405 -0.550152 8.08964 -90.2672 10.6925 -1.21868 -0.419861 -0.977946 -1.23598 -0.365811 -23.5159 -1.03616 -0.766743 -3.50328 -1.03615 -0.766733 87.776 -32.3836 -110.113 40.4455 -5.29521 5.70381 4.44585 -24.9549 -10.6417 -21.23 -0.50421 -9.67656 -88.4481 -49.7743 81.0091 -13.6365 -3.5565 -30.3102 10.3356 5.96946 -24.5599 7.22359 -0.764621 -12.3652 -6.85631 2.67141 6.38644 -3.60217 2.12665 1.96149 
24.4379 98.4727 -7.52584 120.32 -71.9119 116.105 -174.244 -8.71991 84.9162 -25.3927 26.3957 -1.63392 81.6382 14.7116 1.0469 10.947 -13.5502 8.00487 -177.955 13.8863 88.4837 -15.6216 -50.6221 -9.95088 60.0494 0.404061 2.23821 37.6408 -3.04483 0.423291 -0.911151 8.02643 -90.2305 10.8194 -1.92064 -0.280575 -0.850119 -1.93113 -0.195745 -23.395 -1.7475 -0.845006 -3.38232 -1.7475 -0.845003 88.003 -33.7111 -109.153 40.8616 -4.89167 6.21052 4.49599 -25.154 -10.1668 -22.7913 -0.610077 -8.7875 -89.1801 -49.9244 79.9415 -15.8629 -1.63054 -27.8785 10.626 8.05104 -24.6619 7.89309 -0.666841 -10.8832 -6.75109 2.15938 4.57111 -4.34088 1.72694 2.64277 
25.5948 98.282 -0.280666 112.022 -65.1302 108.746 -174.125 -12.8923 87.9316 -26.3759 31.3618 1.4767 81.8342 15.6889 1.07148 13.5214 -12.3733 9.302 -176.97 14.1557 89.1898 -23.9661 -46.3037 -9.25183 57.0732 1.30649 4.75384 34.2497 -1.54663 -3.67061 -1.00032 7.82016 -90.3497 11.2297 -2.15342 -0.483548 -0.439576 -2.1726 -0.38827 -22.9858 -1.90852 -1.10859 -2.97311 -1.90851 -1.10859 88.1649 -34.2519 -108.637 42.0222 -4.97538 6.30785 4.9922 -24.2032 -9.0551 -20.0766 -0.438083 -10.1005 -87.3977 -50.6279 82.7356 -20.0718 4.81904 -23.9662 7.58394 11.5479 -17.9304 4.1773 -0.413992 -10.2417 -7.30165 0.87924 3.19933 -4.8583 0.574101 2.42321 
27.2898 99.2707 6.09926 106.787 -55.6147 106.478 -174.303 -11.6292 92.3961 -35.4981 33.3377 6.63627 75.7808 11.9529 2.89415 18.2998 -9.0287 9.08222 -179.982 9.77647 91.5812 -23.3689 -37.9842 -5.56158 60.7844 -0.763204 2.60213 30.9759 -0.991644 2.23382 -0.904873 7.7213 -90.7843 11.4178 -2.1665 -1.34325 -0.251946 -2.22351 -1.24658 -22.791 -1.66272 -1.93227 -2.77829 -1.66272 -1.93227 88.457 -32.502 -108.775 42.7294 -5.44788 5.36143 4.89645 -23.8114 -9.71937 -24.4475 -0.788038 -7.20208 -88.3643 -51.6056 81.4735 -25.3132 10.1086 -17.0226 1.42712 10.3007 -5.73496 0.322821 -0.147478 -6.79033 -7.03325 -0.937669 1.30378 -5.24516 -1.11234 2.5578 
28.5289 99.7851 10.7567 102.302 -42.069 103.531 -175.389 -2.62866 96.6957 -51.21 27.4206 8.05062 66.8949 5.23951 1.59319 15.8503 -8.95964 4.88427 176.227 4.98178 92.381 -20.7298 -28.2434 -1.36665 64.5022 -2.91993 0.383444 28.3117 -0.603121 5.67125 -0.726493 7.75109 -90.9184 11.3564 -1.87387 -1.64213 -0.314165 -1.94431 -1.55807 -22.847 -1.29382 -2.12926 -2.83435 -1.29382 -2.12927 88.5153 -33.4641 -108.289 39.3351 -6.09421 3.82677 3.95001 -26.3449 -11.4417 -23.5325 -0.824322 -7.8152 -88.6837 -50.6476 80.8229 -28.1385 11.5979 -10.7708 -1.96906 10.7557 0.477253 -2.96435 -0.0845755 -3.9174 -4.00393 -3.63607 -3.32063 -5.19032 -3.30495 1.96119 
29.752 99.9413 13.9202 99.3879 -25.5752 101.28 -176.882 11.1417 97.6283 -62.5219 13.7478 7.21962 62.3288 1.74418 0.623143 9.69007 -11.7393 2.43386 173.895 0.0365026 93.0973 -18.0996 -14.2134 2.33471 65.8567 -2.72606 3.71409 30.8842 -0.582886 -1.09579 -0.515664 7.99572 -91.0174 10.8663 -1.49679 -1.88154 -0.805095 -1.57812 -1.81387 -23.332 -0.862297 -2.24425 -3.31938 -0.862277 -2.24424 87.9272 -33.5134 -109.37 33.9848 -6.50694 3.27725 3.39912 -24.3419 -12.2837 -25.2347 -0.762685 -7.42891 -89.2032 -51.1622 80.1515 -24.5609 8.15548 -4.98943 0.255038 8.34931 -2.55099 -2.75451 -0.10379 -5.98688 0.366596 -6.84685 -8.2641 -3.18967 -5.6257 1.41497 
31.6042 99.9425 16.2334 97.4505 -8.8056 99.1699 -176.512 19.1196 95.3804 -60.804 16.777 4.80986 64.4806 3.28032 0.201676 9.86618 -12.2822 3.83055 172.921 -3.10639 92.5342 -17.5482 0.457832 3.6749 68.9377 -2.76971 5.12487 31.3583 -0.511453 -3.47829 -0.170667 8.04687 -90.8653 10.7713 -0.739002 -1.65174 -0.900473 -0.810975 -1.61763 -23.4274 -0.208519 -1.79743 -3.4147 -0.208515 -1.79744 87.78 -32.3873 -110.104 28.5791 -7.08578 4.89456 6.23599 -25.731 -8.46036 -22.6154 -0.791538 -7.93805 -89.1984 -50.6152 80.0501 -20.5035 7.87958 -4.8724 1.56822 3.31958 -8.75408 0.72967 -0.144208 -6.52315 2.14067 -8.73543 -10.6263 -2.63106 -6.93632 -0.722273 
34.4747 99.8291 17.2791 95.2364 3.74898 92.9022 -175.753 22.7724 89.5053 -48.4789 16.3985 1.26629 68.0025 5.44886 -0.543855 11.7541 -10.8073 3.19081 172.159 -4.73298 91.3982 -17.473 13.2182 4.26784 72.0838 -3.45158 2.75432 29.805 -0.431319 0.671062 -0.018107 7.86479 -90.5232 11.1419 -0.278964 -1.01409 -0.529373 -0.323334 -1.00084 -23.0614 0.038695 -1.05105 -3.04872 0.0386955 -1.05105 88.3498 -30.9603 -109.607 26.4773 -6.19849 6.42833 7.07723 -25.3621 -5.48746 -22.0398 -1.0275 -6.35104 -89.0288 -50.7684 80.3326 -17.1889 7.75836 -5.81845 2.42719 5.22486 -13.3435 1.1959 -0.226211 -8.72358 2.6899 -8.77525 -11.4978 -2.99584 -6.78363 -0.295665 
38.077 99.9324 17.3663 94.4666 12.9398 88.317 -176.315 21.8634 83.9215 -30.3636 9.39829 -1.63707 65.5908 3.65176 -0.869042 13.7424 -10.3277 4.97564 172.391 -7.77919 90.2969 -14.7074 23.7098 3.48482 72.8289 -3.85286 2.08962 31.273 -1.04554 1.76497 0.24661 7.84828 -90.14 11.1783 0.425537 -0.321807 -0.492619 0.410975 -0.340236 -23.028 0.502591 -0.17904 -3.0153 0.502583 -0.179046 89.2083 -28.9775 -108.746 26.3558 -3.5401 6.22993 5.08296 -20.403 -7.5864 -23.8287 -0.750826 -6.41722 -88.9038 -51.7932 80.7147 -17.9853 7.52373 -6.21745 2.41417 1.58577 -14.5256 0.949752 -0.240783 -9.61331 4.40663 -7.97764 -9.05035 -3.47184 -6.21711 -2.27921 
42.6429 99.5146 16.5654 93.5119 15.7052 86.4224 -177.422 19.9909 81.4375 -15.7123 3.40425 -3.10014 63.0055 2.07013 -1.25195 16.8277 -9.10438 6.78259 172.158 -10.2615 89.0935 -13.1899 27.0726 2.60833 73.0346 -3.84303 3.27127 32.6583 -1.23932 -0.869365 0.793396 7.74578 -89.8196 11.3815 1.66298 0.193366 -0.288443 1.66988 0.119957 -22.831 1.52797 0.684333 -2.81835 1.52798 0.684334 88.639 -28.3505 -110.155 26.1058 -2.74417 2.99333 3.69708 -20.216 -10.6412 -24.7563 -0.499803 -7.67475 -88.7951 -53.9258 81.2667 -20.2426 6.9606 -1.39779 2.32463 0.226794 -15.3781 2.18442 -0.271647 -9.00542 5.80223 -6.12956 -6.37797 -3.27102 -4.7814 -2.8937 
48.5111 98.5861 15.0663 93.3587 15.7853 85.4319 -177.336 20.1818 80.4192 -17.3526 -2.91405 -3.48896 64.6292 2.86636 0.503556 13.3904 -10.4221 4.65301 171.506 -14.0643 87.9481 -12.0416 26.7911 1.93229 72.9093 -5.02891 2.2551 35.2652 -2.05249 -2.55166 1.20451 7.69438 -89.6008 11.4803 2.58305 0.532367 -0.188161 2.60397 0.418092 -22.7395 2.30359 1.28443 -2.72687 2.30359 1.28443 87.2891 -29.1911 -112.459 25.5905 -3.1862 -2.5049 0.433983 -23.5617 -15.9106 -24.2913 -0.518419 -8.62486 -87.8089 -56.1654 83.0447 -23.6252 5.57014 4.97693 2.47581 0.677121 -12.4164 -1.44966 -0.107236 -5.07982 7.91816 -3.77232 -3.84622 -3.70586 -2.85161 -3.11624 
56.0879 98.5453 12.4778 93.5892 16.3691 84.2673 -176.54 18.9748 79.0957 -23.5577 -1.6629 -4.15447 65.1264 1.99909 1.49476 7.84229 -13.5031 3.69208 167.865 -16.2051 83.5079 -15.3652 21.625 2.86917 65.3206 -2.62714 0.553372 45.9237 -5.90677 -2.53653 1.44308 7.55527 -89.2615 11.7494 3.21692 1.13292 0.0820728 3.26366 0.990106 -22.4736 2.72767 2.04784 -2.46099 2.72766 2.04783 86.4671 -30.8431 -113.284 28.4903 -4.07892 -6.00278 -5.13728 -27.7321 -24.2239 -26.7018 -0.455493 -10.1051 -87.3899 -56.4192 83.6729 -27.3968 5.06842 9.51575 1.00295 -0.406899 -3.58961 -2.11918 -0.0910447 -4.60419 7.93709 -2.6504 -4.68716 -3.67829 -1.58037 -2.78607 
63.0619 99.0496 9.25289 96.0582 19.1252 81.3454 -175.97 12.0903 77.0021 -25.374 1.27126 -5.33798 69.3671 5.30735 0.772645 10.8073 -12.4439 5.47155 161.804 -9.36851 75.4453 -34.8225 10.1556 3.22231 59.162 0.505273 0.317092 39.5081 -3.77457 2.26991 1.51124 7.67411 -88.9244 11.497 3.50937 1.78387 -0.170206 3.58447 1.62755 -22.722 2.81111 2.75635 -2.70931 2.81114 2.75636 86.8118 -31.147 -112.485 34.1762 -6.14965 -7.20451 -6.80446 -28.8422 -26.8845 -26.5096 -0.298189 -11.4133 -87.6071 -57.4759 83.5296 -27.3796 4.78624 12.6189 0.797865 -0.00590368 -4.0879 -3.61695 -0.0853937 -3.76949 7.33292 -2.2452 -4.30541 -4.47919 -1.25691 -3.28304 
